<?xml version="1.0" standalone="no"?>
<!DOCTYPE svg PUBLIC "-//W3C//DTD SVG 20010904//EN"
 "http://www.w3.org/TR/2001/REC-SVG-20010904/DTD/svg10.dtd">
<svg version="1.0" xmlns="http://www.w3.org/2000/svg"
 width="5000.000000pt" height="5000.000000pt" viewBox="0 0 5000.000000 5000.000000"
 preserveAspectRatio="xMidYMid meet">
<metadata>
Created by potrace 1.14, written by Peter Selinger 2001-2017
</metadata>
<g transform="translate(0.000000,5000.000000) scale(0.100000,-0.100000)"
fill="#000000" stroke="none">
<path d="M6391 41049 c-494 -48 -963 -320 -1278 -743 -231 -310 -374 -678
-413 -1061 -8 -80 -10 -3301 -8 -11760 l4 -11650 22 -110 c95 -479 291 -850
613 -1160 251 -241 539 -395 883 -473 l121 -27 18480 -3 c13841 -2 18508 0
18590 8 521 55 1007 361 1324 835 174 260 288 561 338 890 17 115 18 573 18
11765 0 11115 -1 11650 -18 11760 -97 625 -416 1136 -912 1460 -175 114 -415
209 -636 252 l-114 22 -18465 2 c-10156 1 -18503 -2 -18549 -7z m36129 -13259
l0 -10580 -17740 0 -17740 0 0 10580 0 10580 17740 0 17740 0 0 -10580z"/>
<path d="M23440 12010 l0 -1520 -4747 -2 -4748 -3 -100 -28 c-129 -35 -317
-128 -426 -211 -278 -210 -469 -531 -536 -901 -14 -77 -17 -196 -20 -812 l-4
-723 12026 0 12026 0 -4 748 c-3 726 -4 750 -25 844 -111 488 -430 871 -852
1022 -41 15 -102 35 -135 44 -55 15 -408 17 -4650 22 l-4590 5 -3 1518 -2
1517 -1605 0 -1605 0 0 -1520z"/>
</g>
</svg>
